<svg width="33" height="33" viewBox="0 0 33 33" fill="none" xmlns="http://www.w3.org/2000/svg">
<path d="M2.1642 10.886V11.2143C2.1642 16.2777 2.16336 21.341 2.16586 26.4043C2.16586 26.6535 2.16753 26.906 2.2092 27.1502C2.5792 29.3526 4.31753 30.826 6.56503 30.8302C10.5667 30.8368 14.5692 30.8318 18.5717 30.8318H18.9084C18.85 30.5977 18.7925 30.4193 18.7642 30.2368C18.5342 28.7693 18.3267 27.2985 18.0784 25.8343C17.9567 25.121 18.0334 24.4685 18.345 23.8085C19.7909 20.7493 21.2125 17.6777 22.6442 14.6118C23.5984 12.5685 25.68 11.8068 27.7242 12.7577C28.7367 13.2277 29.7425 13.7118 30.7409 14.1852V10.886H2.1642ZM13.7367 26.8368C12.6459 26.8427 11.5559 26.8385 10.465 26.8385C9.3642 26.8377 8.26336 26.8385 7.16253 26.8377C6.7617 26.8377 6.4592 26.6568 6.27253 26.3102C6.0917 25.9743 6.11003 25.6268 6.31503 25.3035C6.51503 24.9885 6.82003 24.8443 7.18586 24.8443C9.3767 24.841 11.5684 24.8377 13.76 24.8452C14.3734 24.8477 14.8 25.2835 14.795 25.856C14.79 26.4302 14.3625 26.8335 13.7367 26.8368ZM16.6759 21.4935C16.5559 21.5202 16.4284 21.5185 16.305 21.5185C14.7984 21.5202 13.2925 21.5193 11.7867 21.5193C10.26 21.5193 8.73336 21.5227 7.2067 21.5177C6.4892 21.5152 6.00503 20.9002 6.19003 20.2435C6.31253 19.8085 6.70253 19.5252 7.20253 19.5235C8.43836 19.5202 9.67503 19.5227 10.9109 19.5227C12.7492 19.5227 14.5875 19.5202 16.4259 19.5243C16.9759 19.5252 17.4017 19.8993 17.4592 20.4102C17.515 20.911 17.1784 21.3835 16.6759 21.4935ZM17.4384 15.4068C17.3417 15.8143 17.0825 16.081 16.6634 16.166C16.5325 16.1927 16.3959 16.1985 16.2617 16.1985C14.7759 16.201 13.2909 16.2002 11.8059 16.2002C10.29 16.2002 8.77336 16.2027 7.25753 16.1985C6.58253 16.196 6.14086 15.7685 6.16003 15.1552C6.17586 14.651 6.55586 14.251 7.0592 14.2102C7.1417 14.2035 7.22503 14.2035 7.30836 14.2035C10.3092 14.2035 13.3109 14.1977 16.3125 14.2135C16.5742 14.2143 16.8717 14.301 17.09 14.4435C17.4167 14.6568 17.53 15.0185 17.4384 15.4068Z" fill="#FF782D"/>
<path d="M30.7609 6.56587C30.7425 6.14337 30.6992 5.71087 30.5817 5.30754C30.0325 3.41421 28.3725 2.22421 26.3142 2.22337C19.7542 2.22171 13.1942 2.22254 6.63338 2.22337C6.50921 2.22337 6.38421 2.22421 6.25921 2.22921C4.29421 2.30504 2.53338 3.79754 2.25588 5.74671C2.12004 6.69587 2.18754 7.67504 2.16588 8.64004C2.16421 8.70837 2.18254 8.77754 2.19254 8.85587H30.7542C30.7592 8.75837 30.7675 8.66004 30.7684 8.56171C30.7692 7.89587 30.7892 7.23004 30.7609 6.56587ZM7.80838 6.86921C7.26421 6.86671 6.81588 6.42004 6.81421 5.87921C6.81338 5.32921 7.29004 4.86171 7.83588 4.87754C8.38088 4.89254 8.81171 5.34171 8.80588 5.89087C8.80004 6.44254 8.36338 6.87171 7.80838 6.86921ZM11.1525 6.86921C10.5984 6.87337 10.1592 6.44504 10.1525 5.89421C10.145 5.33171 10.5942 4.87254 11.1484 4.87671C11.6825 4.88087 12.1417 5.34171 12.1434 5.87587C12.145 6.41671 11.6984 6.86504 11.1525 6.86921ZM14.48 6.86837C13.9317 6.87254 13.4809 6.43754 13.4725 5.89504C13.4642 5.33921 13.9217 4.87421 14.4742 4.87754C15.0125 4.88087 15.4659 5.33587 15.4675 5.87421C15.4692 6.41837 15.0259 6.86421 14.48 6.86837Z" fill="#FF782D"/>
<path d="M29.0076 21.4308C28.821 21.8308 28.6435 22.2142 28.4651 22.5967C27.6893 24.2617 26.9101 25.9258 26.1401 27.5933C26.0001 27.8983 25.8001 28.1258 25.5118 28.2992C24.2393 29.0642 22.9735 29.8408 21.7035 30.61C20.9076 31.0925 20.1785 30.7517 20.036 29.8308C19.8043 28.3325 19.571 26.8342 19.3568 25.3333C19.326 25.1183 19.346 24.8625 19.4351 24.6675C20.391 22.5825 21.366 20.5067 22.336 18.4283C22.3443 18.4108 22.3618 18.3967 22.4018 18.3508C24.6018 19.3767 26.791 20.3975 29.0076 21.4308Z" fill="#FF782D"/>
<path d="M30.6609 17.8093C30.4493 18.4226 30.1401 19.0026 29.8626 19.626C27.6368 18.5885 25.4434 17.5651 23.2151 16.526C23.4893 15.9485 23.7218 15.4043 24.0001 14.8835C24.5501 13.856 25.7793 13.3935 26.8559 13.841C27.7843 14.2268 28.6976 14.6526 29.5901 15.1135C30.5476 15.6085 31.0143 16.7851 30.6609 17.8093Z" fill="#FF782D"/>
<path d="M30.7667 26.4633C30.7542 28.6867 29.2817 30.4433 27.0842 30.7742C26.3308 30.8875 25.55 30.8192 24.7808 30.8308C24.5325 30.835 24.2842 30.8317 24.035 30.8317C24.0283 30.8092 24.0208 30.7867 24.0142 30.7642C24.7208 30.3342 25.4192 29.89 26.1358 29.4775C26.7092 29.1483 27.1042 28.69 27.38 28.0908C28.4333 25.7992 29.5058 23.5158 30.5717 21.23C30.6133 21.1392 30.6617 21.0508 30.7433 20.8892C30.7558 21.0408 30.7675 21.1167 30.7675 21.1917C30.7692 22.9492 30.7767 24.7058 30.7667 26.4633Z" fill="#FF782D"/>
</svg>
