<svg width="33" height="33" viewBox="0 0 33 33" fill="none" xmlns="http://www.w3.org/2000/svg">
<g clip-path="url(#clip0_24_1297)">
<path d="M24.5966 23.585C24.2033 19.0375 20.0416 15.675 15.4925 16.2283C11.1133 16.7617 7.9083 20.6792 8.36247 25.0767C8.72164 28.5458 10.6433 30.8767 13.9141 32.0692C14.5108 32.2875 15.1608 32.36 15.7866 32.5H17.1591C17.3108 32.4742 17.4625 32.445 17.615 32.4225C21.9441 31.785 24.9741 27.9492 24.5966 23.585ZM17.6483 29.49C17.5725 29.5217 17.4966 29.5525 17.4075 29.5883V30.9817H15.545V29.6017C14.0291 28.8783 13.2658 27.8325 13.3416 26.5658H15.1475C15.1708 26.645 15.195 26.7108 15.2091 26.7792C15.3591 27.4858 15.9291 27.905 16.6391 27.8283C17.2708 27.7608 17.7741 27.1833 17.7616 26.5408C17.7475 25.8542 17.22 25.295 16.5108 25.275C15.5683 25.2483 14.7666 24.9242 14.1333 24.2233C12.6725 22.6075 13.2325 20.0758 15.2466 19.215C15.4766 19.1167 15.5583 19.0067 15.5425 18.7617C15.52 18.4117 15.5366 18.0583 15.5366 17.6817H17.4083C17.4083 18.07 17.4225 18.4417 17.4033 18.8117C17.3925 19.0225 17.465 19.1125 17.6591 19.1967C18.8391 19.7075 19.4916 20.6142 19.62 21.895C19.6258 21.955 19.62 22.0158 19.62 22.0967H17.79C17.77 22.0192 17.7466 21.9417 17.73 21.8625C17.5858 21.1883 16.9908 20.7592 16.3075 20.8375C15.665 20.9108 15.1533 21.5133 15.185 22.16C15.2191 22.8408 15.7425 23.36 16.4316 23.3958C18.0191 23.4775 19.1841 24.3817 19.535 25.8042C19.9116 27.3342 19.1208 28.8808 17.6483 29.49Z" fill="#FF782D"/>
<path d="M8.8725 17.495C8.87083 17.6633 8.79833 17.8608 8.69417 17.9933C7.97917 18.8975 7.40833 19.8791 7.02333 20.9675C6.97333 21.1075 6.93833 21.225 6.7375 21.2241C4.65833 21.2133 2.57917 21.2125 0.5 21.2083V19.3366H4.10833V12.98H8.88083V13.3158C8.88083 14.7091 8.88667 16.1016 8.8725 17.495Z" fill="#FF782D"/>
<path d="M32.4267 19.3474V21.2024C32.3251 21.2083 32.2251 21.2191 32.1259 21.2191C30.1926 21.2199 28.2592 21.2149 26.3267 21.2258C26.0909 21.2266 25.9817 21.1599 25.9034 20.9341C25.5309 19.8533 24.9576 18.8841 24.2476 17.9899C24.1484 17.8641 24.0726 17.6783 24.0726 17.5208C24.0634 11.9716 24.0651 6.42242 24.0651 0.873258V0.569092H28.8284V19.3474H32.4267Z" fill="#FF782D"/>
<path d="M22.1668 4.7041V15.9824C21.4159 15.6258 20.6768 15.2066 19.8901 14.9199C19.1059 14.6341 18.2726 14.4816 17.4268 14.2624V4.7041H22.1668Z" fill="#FF782D"/>
<path d="M15.5125 8.84912V14.2633C14.6808 14.48 13.8408 14.6358 13.0483 14.9233C12.2675 15.2075 11.5342 15.625 10.7742 15.9866V8.84912H15.5125Z" fill="#FF782D"/>
</g>
<defs>
<clipPath id="clip0_24_1297">
<rect width="32" height="32" fill="white" transform="translate(0.5 0.5)"/>
</clipPath>
</defs>
</svg>
